<svg width="80" height="80" viewBox="0 0 80 80" fill="none" xmlns="http://www.w3.org/2000/svg">
<path d="M39.8622 3.20036C28.6782 3.26756 19.1811 11.7009 17.7747 22.8129C17.4627 25.2833 17.567 27.7825 18.0934 30.2785L25.1434 60.3004C25.6586 62.4796 27.58 64.0004 29.8184 64.0004H33.5997V75.2004C33.5997 76.0836 34.3165 76.8004 35.1997 76.8004C36.0829 76.8004 36.7997 76.0836 36.7997 75.2004V64.0004H43.1997V75.2004C43.1997 76.0836 43.9165 76.8004 44.7997 76.8004C45.6829 76.8004 46.3997 76.0836 46.3997 75.2004V64.0004H50.2778C52.513 64.0004 54.4535 62.4561 54.9559 60.2785L62.0184 29.6222C62.0248 29.595 62.0292 29.5713 62.034 29.5441C62.4452 27.2385 62.5058 25.1986 62.2434 23.0754C61.6626 18.3682 59.6753 13.8724 56.4497 10.3972C52.1137 5.72364 46.2446 3.17636 39.8622 3.20036ZM38.3997 9.68786V11.2004C38.3997 12.0852 39.1149 12.8004 39.9997 12.8004C40.8845 12.8004 41.5997 12.0852 41.5997 11.2004V9.68786C45.5613 10.0911 49.1449 11.9703 51.7497 14.7879L50.2653 16.2722C49.6397 16.8978 49.6397 17.9091 50.2653 18.5347C50.5773 18.8467 50.9869 19.0035 51.3965 19.0035C51.8061 19.0035 52.2158 18.8467 52.5278 18.5347L53.6934 17.3691C54.7718 19.1483 55.5268 21.1483 55.8372 23.3035C55.8516 23.4139 55.8651 23.5346 55.8747 23.6722C55.9771 24.973 55.5238 26.2792 54.6278 27.2472C53.719 28.2328 52.428 28.8004 51.0872 28.8004H28.9122C27.549 28.8004 26.246 28.2148 25.334 27.1972C24.4268 26.1828 23.9915 24.8319 24.1403 23.4879C24.1451 23.4479 24.1604 23.331 24.1684 23.291C24.4692 21.1422 25.2213 19.1421 26.2997 17.3629L27.4684 18.5285C27.7804 18.8405 28.1869 18.9972 28.5965 18.9972C29.0061 18.9972 29.4158 18.8405 29.7278 18.5285C30.3534 17.9029 30.3534 16.8947 29.7278 16.2691L28.2403 14.7785C30.8419 11.9689 34.4301 10.0895 38.3997 9.68786ZM39.9997 17.6004C39.1149 17.6004 38.3997 18.3156 38.3997 19.2004V24.4441C37.4477 24.9993 36.7997 26.0212 36.7997 27.2004H43.1997C43.1997 26.0212 42.5517 24.9993 41.5997 24.4441V19.2004C41.5997 18.3156 40.8845 17.6004 39.9997 17.6004ZM57.4465 35.2066L54.6403 47.3847C52.5203 46.3127 51.0747 44.1177 51.0747 41.6441C51.0747 38.1161 53.9265 35.2482 57.4465 35.2066ZM33.5997 36.8004C34.4845 36.8004 35.1997 37.5156 35.1997 38.4004V48.0004C35.1997 48.8852 34.4845 49.6004 33.5997 49.6004C32.7149 49.6004 31.9997 48.8852 31.9997 48.0004V38.4004C31.9997 37.5156 32.7149 36.8004 33.5997 36.8004Z" fill="white"/>
</svg>
