<svg width="80" height="80" viewBox="0 0 80 80" fill="none" xmlns="http://www.w3.org/2000/svg">
<path d="M15 10V65H45V10H15ZM12.5 5H47.5C48.163 5 48.7989 5.26339 49.2678 5.73223C49.7366 6.20107 50 6.83696 50 7.5V67.5C50 68.163 49.7366 68.7989 49.2678 69.2678C48.7989 69.7366 48.163 70 47.5 70H12.5C11.837 70 11.2011 69.7366 10.7322 69.2678C10.2634 68.7989 10 68.163 10 67.5V7.5C10 6.83696 10.2634 6.20107 10.7322 5.73223C11.2011 5.26339 11.837 5 12.5 5Z" fill="white"/>
<path d="M20 20H40V25H20V20ZM20 35H40V40H20V35ZM20 50H40V55H20V50ZM50 40H60V45H50V40ZM50 50H60V55H50V50ZM5 65H75V70H5V65Z" fill="white"/>
<path d="M50 30V65H65V30H50ZM47.5 25H67.5C68.163 25 68.7989 25.2634 69.2678 25.7322C69.7366 26.2011 70 26.837 70 27.5V67.5C70 68.163 69.7366 68.7989 69.2678 69.2678C68.7989 69.7366 68.163 70 67.5 70H47.5C46.837 70 46.2011 69.7366 45.7322 69.2678C45.2634 68.7989 45 68.163 45 67.5V27.5C45 26.837 45.2634 26.2011 45.7322 25.7322C46.2011 25.2634 46.837 25 47.5 25Z" fill="white"/>
</svg>
