<svg width="80" height="80" viewBox="0 0 80 80" fill="none" xmlns="http://www.w3.org/2000/svg">
<path d="M55 55H60V70H20V55H25V60H55V55ZM69.73 43.11C69.885 43.72 70 44.345 70 45C70 45.9849 69.806 46.9602 69.4291 47.8701C69.0522 48.7801 68.4997 49.6069 67.8033 50.3033C67.1069 50.9997 66.2801 51.5522 65.3701 51.9291C64.4602 52.306 63.4849 52.5 62.5 52.5C61.5151 52.5 60.5398 52.306 59.6299 51.9291C58.7199 51.5522 57.8931 50.9997 57.1967 50.3033C56.5003 49.6069 55.9478 48.7801 55.5709 47.8701C55.194 46.9602 55 45.9849 55 45C55 46.9891 54.2098 48.8968 52.8033 50.3033C51.3968 51.7098 49.4891 52.5 47.5 52.5C45.5109 52.5 43.6032 51.7098 42.1967 50.3033C40.7902 48.8968 40 46.9891 40 45C40 46.9891 39.2098 48.8968 37.8033 50.3033C36.3968 51.7098 34.4891 52.5 32.5 52.5C30.5109 52.5 28.6032 51.7098 27.1967 50.3033C25.7902 48.8968 25 46.9891 25 45C25 45.9849 24.806 46.9602 24.4291 47.8701C24.0522 48.7801 23.4997 49.6069 22.8033 50.3033C22.1069 50.9997 21.2801 51.5522 20.3701 51.9291C19.4602 52.306 18.4849 52.5 17.5 52.5C16.5151 52.5 15.5398 52.306 14.6299 51.9291C13.7199 51.5522 12.8931 50.9997 12.1967 50.3033C11.5003 49.6069 10.9478 48.7801 10.5709 47.8701C10.194 46.9602 10 45.9849 10 45C10 44.345 10.11 43.72 10.265 43.11L15 10H65L69.73 43.11Z" fill="white"/>
</svg>
