<svg width="80" height="80" viewBox="0 0 80 80" fill="none" xmlns="http://www.w3.org/2000/svg">
<path d="M72 26.6663C71.5936 26.6679 71.1926 26.5766 70.8267 26.3996L40 10.6662L9.17338 26.2929C7.80378 26.9409 6.16804 26.3558 5.52004 24.9862C4.87204 23.6166 5.45711 21.9809 6.82671 21.3329L40 4.90625L73.1734 21.3329C74.6459 21.6572 75.5776 23.1137 75.2534 24.5863C74.9291 26.0588 73.4726 26.9905 72 26.6663ZM26.6667 53.3329H10.6667V69.3329H26.6667V53.3329ZM48 53.3329H32V69.3329H48V53.3329ZM69.3334 53.3329H53.3334V69.3329H69.3334V53.3329ZM58.6667 31.9996H42.6667V47.9996H58.6667V31.9996ZM37.3334 31.9996H21.3334V47.9996H37.3334V31.9996Z" fill="white"/>
</svg>
